<?xml version="1.0" standalone="no"?>
<!DOCTYPE svg PUBLIC "-//W3C//DTD SVG 20010904//EN"
 "http://www.w3.org/TR/2001/REC-SVG-20010904/DTD/svg10.dtd">
<svg version="1.0" xmlns="http://www.w3.org/2000/svg"
 width="700.000000pt" height="700.000000pt" viewBox="0 0 700.000000 700.000000"
 preserveAspectRatio="xMidYMid meet">
<metadata>
Created by potrace 1.14, written by Peter Selinger 2001-2017
</metadata>
<g transform="translate(0.000000,700.000000) scale(0.100000,-0.100000)"
fill="#000000" stroke="none">
<path d="M2344 6878 c-3 -5 -7 -230 -8 -501 -1 -271 -5 -497 -8 -503 -8 -12
-156 -15 -800 -17 -240 -1 -440 -5 -444 -10 -10 -9 -11 -633 -1 -643 4 -4 111
-8 239 -10 128 -2 256 -5 283 -8 113 -11 204 -77 257 -185 l23 -46 0 -1410 c0
-775 -3 -1434 -8 -1464 -15 -108 -106 -179 -227 -179 -19 0 -128 -1 -242 -2
l-207 -2 -5 -27 c-3 -14 -8 -39 -10 -56 -3 -16 -17 -100 -31 -185 -14 -85 -28
-166 -30 -180 -2 -14 -14 -83 -26 -153 -11 -71 -18 -131 -15 -134 3 -4 283 -7
621 -8 338 -1 618 -5 622 -9 5 -4 9 -231 10 -504 1 -273 2 -504 2 -512 1 -14
37 -16 304 -14 166 1 304 3 307 3 6 1 7 63 10 584 1 219 4 407 7 418 5 19 13
20 247 17 l241 -3 1 -498 c1 -355 4 -501 12 -509 14 -14 600 -19 608 -6 3 5 7
234 8 509 1 325 6 503 12 509 13 13 35 17 154 25 113 8 139 10 205 19 62 8
196 28 210 31 6 1 28 5 50 10 22 4 49 10 60 12 11 2 31 6 45 9 225 45 521 171
673 288 35 27 166 153 192 186 118 146 216 368 249 568 3 15 10 57 16 93 14
80 18 358 8 454 -12 103 -54 259 -93 342 -95 204 -263 363 -495 471 -82 39
-237 92 -265 92 -34 0 -20 20 37 56 143 88 268 214 337 339 90 162 129 327
125 527 -3 188 -16 267 -70 426 -49 146 -177 319 -312 420 -20 15 -46 35 -56
44 -32 29 -255 134 -356 168 -166 55 -355 96 -570 124 -111 15 -134 18 -145
22 -9 4 -12 123 -11 505 1 316 -3 503 -9 507 -17 11 -615 8 -618 -3 -1 -5 -2
-229 -1 -497 l2 -488 -87 -1 c-47 0 -157 -2 -244 -4 -86 -1 -159 0 -161 4 -3
4 -6 224 -7 488 -1 265 -6 488 -10 495 -6 10 -73 13 -304 14 -167 1 -298 -3
-301 -8z m1326 -1741 c8 -3 40 -8 70 -12 127 -13 313 -69 408 -122 139 -77
240 -205 272 -348 26 -112 8 -270 -41 -373 -47 -97 -175 -206 -310 -263 -83
-35 -277 -85 -369 -94 -36 -4 -68 -9 -71 -11 -17 -10 -629 -21 -645 -12 -11 8
-12 1189 0 1225 l7 23 332 -4 c183 -2 339 -6 347 -9z m-210 -1868 c162 -1 322
-5 355 -9 33 -5 82 -11 109 -15 27 -3 52 -8 55 -9 3 -2 26 -7 51 -10 61 -8
181 -42 260 -73 164 -65 313 -187 378 -310 18 -34 33 -66 33 -70 0 -5 4 -25
10 -46 12 -44 10 -205 -2 -275 -40 -213 -278 -403 -599 -479 -94 -22 -164 -34
-331 -57 -73 -11 -321 -19 -559 -20 l-245 -1 0 630 c0 347 2 656 3 687 l4 57
66 3 c37 2 78 2 92 1 14 -1 158 -3 320 -4z"/>
</g>
</svg>
